<?xml version="1.0" encoding="UTF-8"?>
<svg xmlns="http://www.w3.org/2000/svg" xmlns:xlink="http://www.w3.org/1999/xlink" width="120px" height="50px" viewBox="0 0 119 50" version="1.1">
<g id="surface1">
<path style=" stroke:none;fill-rule:nonzero;fill:rgb(0.784314%,0.784314%,0.784314%);fill-opacity:1;" d="M 50.234375 24.960938 C 50.234375 21.886719 50.238281 18.8125 50.226562 15.742188 C 50.226562 15.453125 50.292969 15.367188 50.589844 15.371094 C 53.917969 15.382812 57.246094 15.378906 60.574219 15.378906 C 62.851562 15.378906 64.503906 17 64.515625 19.300781 C 64.535156 23.097656 64.53125 26.894531 64.515625 30.691406 C 64.507812 32.972656 62.828125 34.621094 60.570312 34.621094 C 57.253906 34.621094 53.941406 34.617188 50.625 34.632812 C 50.28125 34.632812 50.226562 34.535156 50.226562 34.21875 C 50.238281 31.132812 50.234375 28.046875 50.234375 24.960938 Z M 60.667969 25.007812 C 60.667969 23.195312 60.664062 21.386719 60.675781 19.574219 C 60.675781 19.308594 60.601562 19.242188 60.34375 19.246094 C 58.359375 19.253906 56.371094 19.253906 54.382812 19.246094 C 54.125 19.242188 54.054688 19.308594 54.054688 19.574219 C 54.0625 23.183594 54.0625 26.792969 54.054688 30.40625 C 54.050781 30.691406 54.125 30.753906 54.402344 30.753906 C 56.378906 30.742188 58.351562 30.742188 60.328125 30.753906 C 60.605469 30.753906 60.679688 30.6875 60.675781 30.40625 C 60.660156 28.605469 60.667969 26.808594 60.667969 25.007812 Z M 60.667969 25.007812 "/>
<path style=" stroke:none;fill-rule:nonzero;fill:rgb(0.784314%,0.784314%,0.784314%);fill-opacity:1;" d="M 102.421875 26.660156 C 102.421875 29.195312 102.417969 31.730469 102.429688 34.265625 C 102.429688 34.570312 102.34375 34.632812 102.058594 34.628906 C 101.003906 34.609375 99.949219 34.613281 98.894531 34.625 C 98.660156 34.628906 98.601562 34.5625 98.601562 34.332031 C 98.605469 33.246094 98.582031 32.160156 98.585938 31.074219 C 98.589844 30.816406 98.519531 30.738281 98.257812 30.742188 C 96.503906 30.753906 94.753906 30.753906 93.003906 30.742188 C 92.71875 30.738281 92.6875 30.851562 92.691406 31.089844 C 92.714844 32.175781 92.714844 33.261719 92.734375 34.347656 C 92.738281 34.550781 92.695312 34.628906 92.472656 34.628906 C 91.367188 34.617188 90.261719 34.605469 89.160156 34.632812 C 88.816406 34.640625 88.851562 34.460938 88.851562 34.246094 C 88.855469 29.773438 88.851562 25.300781 88.859375 20.832031 C 88.859375 20.070312 88.789062 19.308594 88.917969 18.550781 C 89.21875 16.742188 90.804688 15.382812 92.621094 15.378906 C 94.644531 15.375 96.667969 15.375 98.691406 15.378906 C 100.707031 15.378906 102.414062 17.097656 102.417969 19.128906 C 102.425781 21.636719 102.421875 24.148438 102.421875 26.660156 Z M 92.730469 23.347656 C 92.71875 23.347656 92.707031 23.347656 92.695312 23.347656 C 92.695312 24.421875 92.703125 25.496094 92.691406 26.570312 C 92.6875 26.828125 92.753906 26.90625 93.019531 26.902344 C 94.621094 26.890625 96.222656 26.898438 97.824219 26.898438 C 98.582031 26.898438 98.578125 26.898438 98.582031 26.144531 C 98.59375 24.195312 98.613281 22.25 98.617188 20.300781 C 98.617188 19.519531 98.34375 19.25 97.597656 19.25 C 96.296875 19.25 94.992188 19.25 93.6875 19.25 C 93.015625 19.253906 92.734375 19.535156 92.730469 20.203125 C 92.730469 21.25 92.730469 22.300781 92.730469 23.347656 Z M 92.730469 23.347656 "/>
<path style=" stroke:none;fill-rule:nonzero;fill:rgb(0.784314%,0.784314%,0.784314%);fill-opacity:1;" d="M 80.773438 15.375 C 81.730469 15.375 82.683594 15.375 83.640625 15.375 C 85.765625 15.378906 87.449219 17.0625 87.453125 19.191406 C 87.453125 19.878906 87.445312 20.566406 87.457031 21.253906 C 87.460938 21.46875 87.425781 21.558594 87.175781 21.558594 C 86.085938 21.542969 84.992188 21.542969 83.898438 21.558594 C 83.648438 21.558594 83.613281 21.464844 83.621094 21.25 C 83.636719 20.902344 83.628906 20.550781 83.625 20.203125 C 83.613281 19.558594 83.320312 19.253906 82.691406 19.253906 C 81.398438 19.246094 80.105469 19.246094 78.816406 19.253906 C 78.21875 19.253906 77.921875 19.539062 77.90625 20.144531 C 77.886719 20.78125 77.894531 21.417969 77.902344 22.054688 C 77.910156 22.773438 78.214844 23.070312 78.9375 23.074219 C 80.503906 23.078125 82.066406 23.074219 83.632812 23.074219 C 85.765625 23.078125 87.453125 24.777344 87.453125 26.925781 C 87.453125 28.226562 87.457031 29.523438 87.453125 30.824219 C 87.449219 32.894531 85.742188 34.617188 83.6875 34.621094 C 81.789062 34.621094 79.886719 34.621094 77.988281 34.621094 C 75.789062 34.621094 74.136719 33.03125 74.066406 30.828125 C 74.042969 30.152344 74.070312 29.476562 74.054688 28.804688 C 74.050781 28.558594 74.140625 28.515625 74.359375 28.515625 C 75.449219 28.527344 76.542969 28.527344 77.636719 28.515625 C 77.847656 28.515625 77.914062 28.574219 77.90625 28.789062 C 77.890625 29.152344 77.890625 29.515625 77.90625 29.875 C 77.933594 30.460938 78.226562 30.742188 78.800781 30.746094 C 80.105469 30.75 81.410156 30.75 82.714844 30.746094 C 83.320312 30.742188 83.617188 30.433594 83.625 29.8125 C 83.632812 29.199219 83.628906 28.589844 83.628906 27.976562 C 83.625 27.242188 83.316406 26.929688 82.582031 26.925781 C 81.066406 26.921875 79.550781 26.878906 78.039062 26.9375 C 76.011719 27.015625 74.003906 25.363281 74.058594 22.921875 C 74.089844 21.558594 74.027344 20.195312 74.101562 18.839844 C 74.203125 16.921875 75.886719 15.382812 77.792969 15.378906 C 78.785156 15.375 79.777344 15.375 80.773438 15.375 Z M 80.773438 15.375 "/>
<path style=" stroke:none;fill-rule:nonzero;fill:rgb(0.784314%,0.784314%,0.784314%);fill-opacity:1;" d="M 103.648438 24.992188 C 103.648438 21.917969 103.65625 18.847656 103.640625 15.773438 C 103.640625 15.429688 103.738281 15.367188 104.054688 15.367188 C 106.972656 15.382812 109.894531 15.375 112.8125 15.375 C 114.890625 15.378906 116.617188 17.074219 116.640625 19.164062 C 116.660156 20.777344 116.664062 22.390625 116.640625 24 C 116.609375 26.121094 114.898438 27.757812 112.714844 27.773438 C 111.097656 27.78125 109.484375 27.78125 107.871094 27.765625 C 107.570312 27.761719 107.476562 27.824219 107.480469 28.144531 C 107.496094 30.179688 107.484375 32.21875 107.496094 34.253906 C 107.496094 34.539062 107.441406 34.636719 107.136719 34.628906 C 106.09375 34.609375 105.050781 34.609375 104.007812 34.628906 C 103.703125 34.636719 103.644531 34.539062 103.644531 34.253906 C 103.652344 31.167969 103.648438 28.082031 103.648438 24.992188 Z M 109.847656 19.25 C 109.140625 19.25 108.433594 19.253906 107.726562 19.25 C 107.558594 19.246094 107.484375 19.269531 107.484375 19.46875 C 107.496094 20.878906 107.492188 22.292969 107.488281 23.703125 C 107.484375 23.867188 107.527344 23.917969 107.695312 23.914062 C 109.085938 23.90625 110.476562 23.917969 111.867188 23.898438 C 112.507812 23.890625 112.785156 23.585938 112.792969 22.933594 C 112.800781 22.019531 112.800781 21.109375 112.792969 20.195312 C 112.785156 19.527344 112.5 19.253906 111.824219 19.25 C 111.164062 19.25 110.507812 19.25 109.847656 19.25 Z M 109.847656 19.25 "/>
<path style=" stroke:none;fill-rule:nonzero;fill:rgb(0.784314%,0.784314%,0.784314%);fill-opacity:1;" d="M 72.457031 25.148438 C 72.457031 25.875 72.460938 26.597656 72.457031 27.324219 C 72.457031 27.832031 72.238281 28.070312 71.746094 28.074219 C 70.257812 28.078125 68.765625 28.078125 67.277344 28.074219 C 66.816406 28.070312 66.574219 27.820312 66.570312 27.347656 C 66.566406 25.859375 66.566406 24.375 66.570312 22.890625 C 66.570312 22.40625 66.820312 22.152344 67.308594 22.152344 C 68.785156 22.144531 70.261719 22.144531 71.738281 22.152344 C 72.230469 22.15625 72.457031 22.402344 72.457031 22.902344 C 72.460938 23.652344 72.457031 24.398438 72.457031 25.148438 Z M 71.851562 25.109375 C 71.855469 25.109375 71.855469 25.109375 71.855469 25.109375 C 71.855469 24.4375 71.851562 23.765625 71.859375 23.089844 C 71.863281 22.882812 71.832031 22.773438 71.582031 22.777344 C 70.21875 22.789062 68.855469 22.785156 67.488281 22.78125 C 67.289062 22.777344 67.203125 22.828125 67.207031 23.050781 C 67.214844 24.421875 67.21875 25.792969 67.214844 27.164062 C 67.210938 27.375 67.277344 27.449219 67.488281 27.449219 C 68.851562 27.441406 70.21875 27.441406 71.582031 27.449219 C 71.792969 27.449219 71.859375 27.378906 71.855469 27.167969 C 71.847656 26.484375 71.851562 25.796875 71.851562 25.109375 Z M 71.851562 25.109375 "/>
<path style=" stroke:none;fill-rule:nonzero;fill:rgb(27.45098%,31.372549%,61.176471%);fill-opacity:1;" d="M 71.851562 25.109375 C 71.851562 25.796875 71.847656 26.484375 71.855469 27.167969 C 71.859375 27.378906 71.792969 27.449219 71.582031 27.449219 C 70.21875 27.441406 68.851562 27.441406 67.488281 27.449219 C 67.277344 27.449219 67.210938 27.375 67.214844 27.167969 C 67.21875 25.792969 67.214844 24.421875 67.207031 23.050781 C 67.203125 22.832031 67.289062 22.78125 67.488281 22.78125 C 68.855469 22.785156 70.21875 22.789062 71.582031 22.777344 C 71.832031 22.777344 71.863281 22.882812 71.859375 23.089844 C 71.851562 23.765625 71.855469 24.4375 71.855469 25.113281 C 71.855469 25.109375 71.855469 25.109375 71.851562 25.109375 Z M 71.851562 25.109375 "/>
<path style=" stroke:none;fill-rule:nonzero;fill:rgb(7.45098%,5.882353%,6.27451%);fill-opacity:1;" d="M 19.464844 6.855469 C 19.628906 5.976562 19.792969 5.171875 19.925781 4.367188 C 19.976562 4.074219 20.089844 3.902344 20.375 3.796875 C 21.742188 3.292969 23.101562 2.773438 24.457031 2.253906 C 24.761719 2.136719 24.996094 2.160156 25.253906 2.402344 C 26.074219 3.175781 26.929688 3.917969 27.765625 4.671875 C 28.164062 5.03125 28.300781 5.085938 27.996094 5.589844 C 27.9375 5.6875 27.925781 5.8125 27.882812 5.953125 C 28.109375 5.964844 28.289062 5.875 28.457031 5.785156 C 28.769531 5.628906 29.078125 5.636719 29.378906 5.792969 C 30.421875 6.324219 31.507812 6.78125 32.519531 7.367188 C 33.074219 7.6875 33.578125 7.734375 34.085938 7.28125 C 34.304688 7.085938 34.574219 7.039062 34.882812 7.089844 C 36.671875 7.371094 38.464844 7.636719 40.257812 7.898438 C 40.542969 7.941406 40.710938 8.03125 40.714844 8.359375 C 40.761719 10.851562 40.808594 13.34375 40.871094 15.835938 C 40.882812 16.257812 40.710938 16.515625 40.355469 16.726562 C 39.703125 17.113281 39.078125 17.539062 38.382812 17.984375 C 39.160156 18.304688 39.886719 18.609375 40.609375 18.910156 C 41.863281 19.429688 41.683594 19.136719 41.734375 20.523438 C 41.867188 24.296875 42.015625 28.070312 42.140625 31.84375 C 42.179688 33.042969 42.289062 34.242188 42.269531 35.445312 C 42.261719 35.820312 42.113281 36.019531 41.832031 36.179688 C 41.449219 36.398438 41.0625 36.605469 40.679688 36.816406 C 34.789062 40.066406 28.902344 43.316406 23.011719 46.5625 C 22.347656 46.929688 21.675781 47.285156 21.035156 47.695312 C 20.75 47.878906 20.445312 47.851562 20.15625 47.628906 C 17.652344 45.695312 15.253906 43.636719 12.828125 41.609375 C 10.832031 39.9375 8.84375 38.257812 6.789062 36.664062 C 6.433594 36.390625 6.261719 36.054688 6.1875 35.617188 C 5.546875 31.945312 4.890625 28.277344 4.242188 24.609375 C 3.679688 21.441406 3.121094 18.277344 2.566406 15.109375 C 2.492188 14.691406 2.320312 14.296875 2.34375 13.851562 C 2.375 13.363281 2.519531 13.125 3 12.960938 C 4.816406 12.351562 6.636719 11.746094 8.457031 11.136719 C 9.097656 10.921875 9.144531 10.839844 9.191406 10.175781 C 9.25 9.273438 9.335938 8.371094 9.390625 7.46875 C 9.414062 7.097656 9.660156 7.03125 9.941406 6.984375 C 11.050781 6.792969 12.15625 6.605469 13.265625 6.414062 C 14.585938 6.1875 15.90625 5.96875 17.222656 5.730469 C 17.550781 5.667969 17.828125 5.734375 18.09375 5.917969 C 18.53125 6.21875 18.972656 6.519531 19.464844 6.855469 Z M 27.289062 33.945312 C 27.230469 33.367188 27.179688 32.882812 27.132812 32.394531 C 26.949219 30.425781 26.710938 28.460938 26.453125 26.5 C 26.394531 26.042969 26.382812 26.046875 25.949219 26.222656 C 23.886719 27.066406 21.824219 27.90625 19.761719 28.75 C 19.136719 29.003906 19.128906 29.003906 19.214844 29.683594 C 19.515625 32.074219 19.761719 34.464844 20.144531 36.84375 C 20.234375 37.402344 20.238281 37.410156 20.753906 37.1875 C 22.785156 36.304688 24.816406 35.414062 26.851562 34.542969 C 27.175781 34.402344 27.398438 34.25 27.289062 33.945312 Z M 34.964844 30.128906 C 34.941406 29.746094 34.921875 29.367188 34.894531 28.984375 C 34.769531 27.046875 34.644531 25.109375 34.511719 23.171875 C 34.476562 22.679688 34.4375 22.664062 33.980469 22.855469 C 31.855469 23.738281 29.738281 24.621094 27.613281 25.503906 C 27.035156 25.742188 26.980469 25.808594 27.046875 26.4375 C 27.296875 28.855469 27.511719 31.273438 27.832031 33.683594 C 27.886719 34.082031 27.875 34.089844 28.25 33.925781 C 30.246094 33.050781 32.242188 32.179688 34.234375 31.292969 C 35.070312 30.921875 35.003906 31.125 34.964844 30.128906 Z M 26.347656 25.085938 C 26.339844 25.007812 26.339844 24.960938 26.335938 24.914062 C 26.101562 22.652344 25.867188 20.390625 25.625 18.128906 C 25.585938 17.75 25.453125 17.679688 25.0625 17.828125 C 22.804688 18.683594 20.566406 19.585938 18.324219 20.492188 C 18 20.621094 17.90625 20.816406 17.960938 21.152344 C 18.066406 21.789062 18.136719 22.425781 18.230469 23.0625 C 18.46875 24.722656 18.710938 26.382812 18.953125 28.042969 C 18.992188 28.335938 19.128906 28.433594 19.417969 28.3125 C 21.632812 27.410156 23.84375 26.5 26.039062 25.546875 C 26.261719 25.453125 26.390625 25.3125 26.347656 25.085938 Z M 26.109375 17.84375 C 26.144531 18.183594 26.171875 18.421875 26.199219 18.65625 C 26.40625 20.683594 26.609375 22.710938 26.820312 24.734375 C 26.871094 25.199219 26.917969 25.21875 27.367188 25.03125 C 28.28125 24.648438 29.199219 24.257812 30.117188 23.875 C 31.40625 23.335938 32.699219 22.800781 33.988281 22.261719 C 34.230469 22.160156 34.464844 22.050781 34.441406 21.707031 C 34.347656 20.472656 34.265625 19.238281 34.171875 18 C 34.09375 16.957031 34.003906 15.910156 33.925781 14.867188 C 33.902344 14.597656 33.820312 14.523438 33.542969 14.625 C 31.210938 15.480469 28.886719 16.363281 26.566406 17.261719 C 26.226562 17.394531 26.03125 17.5625 26.109375 17.84375 Z M 20.355469 38.367188 C 20.355469 38.359375 20.359375 38.453125 20.371094 38.546875 C 20.636719 40.421875 20.90625 42.292969 21.175781 44.167969 C 21.265625 44.78125 21.351562 45.394531 21.4375 46.007812 C 21.503906 46.46875 21.574219 46.507812 21.972656 46.296875 C 22.003906 46.28125 22.035156 46.265625 22.066406 46.25 C 24.011719 45.183594 25.953125 44.113281 27.902344 43.058594 C 28.199219 42.894531 28.292969 42.703125 28.25 42.371094 C 28.121094 41.390625 28.019531 40.40625 27.910156 39.425781 C 27.753906 38.050781 27.59375 36.679688 27.445312 35.308594 C 27.414062 35.007812 27.308594 34.945312 27.03125 35.070312 C 26.125 35.476562 25.210938 35.867188 24.296875 36.261719 C 23.121094 36.769531 21.945312 37.269531 20.773438 37.777344 C 20.558594 37.867188 20.304688 37.941406 20.355469 38.367188 Z M 27.953125 35.070312 C 28.199219 37.371094 28.4375 39.609375 28.675781 41.847656 C 28.753906 42.574219 28.753906 42.574219 29.390625 42.222656 C 31.285156 41.1875 33.179688 40.152344 35.074219 39.121094 C 35.605469 38.828125 35.636719 38.773438 35.585938 38.167969 C 35.425781 36.125 35.265625 34.082031 35.109375 32.039062 C 35.074219 31.605469 35.015625 31.566406 34.601562 31.746094 C 32.527344 32.644531 30.453125 33.550781 28.371094 34.445312 C 28.050781 34.582031 27.890625 34.773438 27.953125 35.070312 Z M 41.292969 22.035156 C 41.292969 21.484375 41.292969 20.9375 41.292969 20.386719 C 41.292969 19.886719 41.25 19.855469 40.789062 20.046875 C 39.046875 20.761719 37.304688 21.480469 35.5625 22.195312 C 34.984375 22.433594 34.996094 22.4375 35.039062 23.0625 C 35.203125 25.425781 35.363281 27.792969 35.519531 30.160156 C 35.550781 30.675781 35.617188 30.726562 36.09375 30.515625 C 37.6875 29.8125 39.28125 29.101562 40.878906 28.410156 C 41.222656 28.261719 41.359375 28.0625 41.359375 27.683594 C 41.367188 25.800781 41.324219 23.917969 41.292969 22.035156 Z M 29.683594 10.316406 C 29.886719 10.378906 30.042969 10.429688 30.203125 10.46875 C 31.519531 10.765625 32.835938 11.046875 34.152344 11.355469 C 34.5625 11.453125 34.917969 11.394531 35.273438 11.1875 C 36.855469 10.273438 38.441406 9.367188 40.023438 8.457031 C 40.132812 8.394531 40.269531 8.359375 40.328125 8.226562 C 40.304688 8.214844 40.289062 8.199219 40.269531 8.195312 C 38.59375 7.933594 36.921875 7.664062 35.246094 7.417969 C 34.664062 7.332031 34.105469 7.476562 33.644531 7.859375 C 33.414062 8.050781 33.226562 8.042969 32.972656 7.914062 C 31.800781 7.316406 30.617188 6.738281 29.441406 6.148438 C 29.152344 6.003906 28.875 5.949219 28.558594 6.070312 C 27.21875 6.574219 25.875 7.066406 24.53125 7.570312 C 24.441406 7.605469 24.316406 7.605469 24.273438 7.726562 C 24.285156 7.75 24.289062 7.777344 24.304688 7.789062 C 25.519531 8.597656 26.742188 9.398438 27.953125 10.214844 C 28.15625 10.351562 28.328125 10.359375 28.546875 10.269531 C 29.410156 9.910156 30.28125 9.558594 31.148438 9.214844 C 31.246094 9.175781 31.339844 9.074219 31.503906 9.164062 C 30.894531 9.550781 30.308594 9.921875 29.683594 10.316406 Z M 40.582031 11.074219 C 40.566406 11.074219 40.550781 11.074219 40.539062 11.074219 C 40.539062 10.539062 40.539062 10 40.539062 9.464844 C 40.539062 8.867188 40.515625 8.855469 40.015625 9.148438 C 38.417969 10.078125 36.824219 11.015625 35.222656 11.933594 C 34.941406 12.09375 34.859375 12.277344 34.878906 12.589844 C 35.015625 14.75 35.195312 16.910156 35.375 19.070312 C 35.410156 19.488281 35.4375 19.507812 35.804688 19.273438 C 37.28125 18.324219 38.753906 17.371094 40.234375 16.433594 C 40.484375 16.273438 40.589844 16.089844 40.585938 15.792969 C 40.574219 14.21875 40.582031 12.648438 40.582031 11.074219 Z M 35.671875 32.007812 C 35.691406 32.273438 35.714844 32.652344 35.742188 33.03125 C 35.851562 34.699219 35.953125 36.363281 36.070312 38.027344 C 36.101562 38.472656 36.167969 38.5 36.570312 38.273438 C 38.050781 37.453125 39.53125 36.621094 41.019531 35.808594 C 41.339844 35.632812 41.484375 35.40625 41.46875 35.035156 C 41.417969 34.015625 41.492188 32.992188 41.40625 31.964844 C 41.335938 31.113281 41.390625 30.25 41.390625 29.394531 C 41.390625 28.882812 41.351562 28.847656 40.867188 29.054688 C 39.308594 29.71875 37.753906 30.390625 36.195312 31.058594 C 35.644531 31.300781 35.640625 31.296875 35.671875 32.007812 Z M 13.734375 26.90625 C 13.742188 26.964844 13.746094 27.023438 13.753906 27.082031 C 13.890625 28.117188 14.027344 29.15625 14.171875 30.191406 C 14.367188 31.566406 14.566406 32.945312 14.761719 34.320312 C 14.796875 34.554688 14.886719 34.734375 15.101562 34.867188 C 16.429688 35.699219 17.75 36.539062 19.074219 37.375 C 19.160156 37.433594 19.246094 37.527344 19.359375 37.445312 C 19.46875 37.367188 19.414062 37.257812 19.398438 37.152344 C 19.269531 36.042969 19.152344 34.929688 19.007812 33.824219 C 18.8125 32.304688 18.589844 30.785156 18.386719 29.265625 C 18.355469 29.042969 18.253906 28.890625 18.058594 28.792969 C 16.707031 28.105469 15.351562 27.421875 14.003906 26.730469 C 13.792969 26.621094 13.71875 26.683594 13.734375 26.90625 Z M 14.976562 35.394531 C 14.882812 35.898438 14.992188 36.34375 15.046875 36.785156 C 15.292969 38.695312 15.558594 40.605469 15.816406 42.511719 C 15.867188 42.882812 15.945312 43.226562 16.269531 43.484375 C 17.023438 44.078125 17.757812 44.699219 18.503906 45.308594 C 19.121094 45.8125 19.738281 46.3125 20.359375 46.808594 C 20.417969 46.859375 20.484375 46.9375 20.574219 46.890625 C 20.648438 46.851562 20.640625 46.769531 20.632812 46.699219 C 20.511719 45.632812 20.398438 44.570312 20.265625 43.507812 C 20.066406 41.925781 19.851562 40.347656 19.65625 38.765625 C 19.613281 38.445312 19.492188 38.214844 19.210938 38.042969 C 18.222656 37.429688 17.246094 36.804688 16.257812 36.183594 C 15.84375 35.921875 15.421875 35.667969 14.976562 35.394531 Z M 18.226562 27.640625 C 18.15625 27.152344 18.058594 26.539062 17.980469 25.925781 C 17.792969 24.441406 17.511719 22.964844 17.445312 21.464844 C 17.417969 20.875 17.15625 20.445312 16.597656 20.21875 C 15.367188 19.722656 14.175781 19.132812 13.015625 18.488281 C 12.910156 18.425781 12.796875 18.375 12.683594 18.46875 C 12.589844 18.546875 12.609375 18.660156 12.625 18.765625 C 12.929688 20.945312 13.230469 23.125 13.535156 25.304688 C 13.585938 25.667969 13.6875 25.996094 14.054688 26.183594 C 15.292969 26.808594 16.523438 27.449219 17.761719 28.074219 C 18.179688 28.289062 18.230469 28.246094 18.226562 27.640625 Z M 12.980469 25.613281 C 12.960938 25.308594 12.957031 25.058594 12.929688 24.820312 C 12.800781 23.78125 12.664062 22.742188 12.535156 21.703125 C 12.394531 20.589844 12.253906 19.480469 12.121094 18.371094 C 12.09375 18.15625 11.996094 18.023438 11.808594 17.933594 C 10.550781 17.339844 9.300781 16.742188 8.042969 16.152344 C 7.945312 16.105469 7.832031 15.996094 7.71875 16.097656 C 7.632812 16.179688 7.691406 16.304688 7.707031 16.40625 C 8.054688 18.675781 8.410156 20.945312 8.757812 23.214844 C 8.792969 23.425781 8.894531 23.554688 9.082031 23.644531 C 9.445312 23.820312 9.804688 24.007812 10.164062 24.191406 C 11.082031 24.652344 12 25.117188 12.980469 25.613281 Z M 14.101562 33.765625 C 14.089844 33.675781 14.078125 33.566406 14.066406 33.460938 C 13.933594 32.410156 13.804688 31.359375 13.667969 30.308594 C 13.511719 29.082031 13.34375 27.855469 13.191406 26.628906 C 13.160156 26.382812 13.035156 26.246094 12.832031 26.140625 C 11.664062 25.554688 10.5 24.964844 9.335938 24.378906 C 9.230469 24.328125 9.113281 24.234375 9.007812 24.324219 C 8.921875 24.394531 8.964844 24.527344 8.984375 24.632812 C 9.335938 26.828125 9.613281 29.035156 10.035156 31.222656 C 10.089844 31.507812 10.222656 31.71875 10.472656 31.878906 C 11.578125 32.570312 12.679688 33.277344 13.78125 33.976562 C 13.867188 34.03125 13.957031 34.148438 14.058594 34.082031 C 14.15625 34.019531 14.082031 33.882812 14.101562 33.765625 Z M 21.03125 14.957031 C 21.105469 14.996094 21.164062 15.035156 21.226562 15.0625 C 22.535156 15.589844 23.839844 16.117188 25.148438 16.640625 C 25.476562 16.773438 25.792969 16.710938 26.117188 16.585938 C 28.359375 15.722656 30.605469 14.863281 32.847656 14 C 32.949219 13.960938 33.074219 13.953125 33.140625 13.851562 C 33.070312 13.730469 32.960938 13.707031 32.863281 13.671875 C 31.449219 13.121094 30.035156 12.578125 28.625 12.027344 C 28.398438 11.9375 28.195312 11.957031 27.972656 12.046875 C 25.902344 12.890625 23.824219 13.726562 21.75 14.570312 C 21.503906 14.671875 21.238281 14.753906 21.03125 14.957031 Z M 8.175781 22.898438 C 8.128906 22.597656 8.089844 22.339844 8.050781 22.078125 C 7.746094 20.117188 7.4375 18.15625 7.144531 16.195312 C 7.089844 15.828125 6.90625 15.628906 6.589844 15.480469 C 5.5625 14.988281 4.542969 14.484375 3.523438 13.980469 C 3.421875 13.929688 3.324219 13.878906 3.226562 13.953125 C 3.125 14.027344 3.15625 14.136719 3.175781 14.246094 C 3.523438 16.222656 3.894531 18.199219 4.238281 20.175781 C 4.382812 21 4.714844 21.492188 5.46875 21.8125 C 6.277344 22.152344 7.035156 22.601562 7.816406 23 C 7.984375 23.085938 8.167969 23.175781 8.175781 22.898438 Z M 15.226562 42.246094 C 15.132812 41.488281 15.050781 40.742188 14.953125 40 C 14.746094 38.40625 14.527344 36.8125 14.320312 35.222656 C 14.296875 35.054688 14.230469 34.929688 14.089844 34.839844 C 12.917969 34.09375 11.75 33.34375 10.578125 32.597656 C 10.5 32.546875 10.414062 32.480469 10.316406 32.550781 C 10.234375 32.609375 10.28125 32.699219 10.292969 32.78125 C 10.535156 34.765625 10.882812 36.730469 11.183594 38.707031 C 11.253906 39.179688 11.484375 39.542969 11.867188 39.832031 C 12.421875 40.257812 12.964844 40.703125 13.507812 41.144531 C 13.976562 41.53125 14.4375 41.925781 14.902344 42.3125 C 14.972656 42.367188 15.046875 42.449219 15.152344 42.414062 C 15.242188 42.382812 15.222656 42.300781 15.226562 42.246094 Z M 19.121094 14.960938 C 19.070312 14.84375 18.984375 14.820312 18.910156 14.789062 C 17.476562 14.203125 16.042969 13.605469 14.574219 13.105469 C 14.285156 13.007812 14.035156 13.007812 13.75 13.113281 C 12.070312 13.726562 10.386719 14.324219 8.703125 14.933594 C 8.597656 14.972656 8.425781 14.964844 8.414062 15.097656 C 8.402344 15.230469 8.570312 15.253906 8.671875 15.304688 C 10.042969 15.980469 11.414062 16.652344 12.785156 17.335938 C 13.007812 17.445312 13.207031 17.4375 13.429688 17.347656 C 15.171875 16.636719 16.917969 15.929688 18.660156 15.222656 C 18.824219 15.15625 18.996094 15.101562 19.121094 14.960938 Z M 20.671875 8.386719 C 20.613281 8.230469 20.503906 8.179688 20.410156 8.113281 C 19.609375 7.519531 18.796875 6.941406 18.007812 6.328125 C 17.726562 6.109375 17.453125 6.066406 17.121094 6.125 C 15.207031 6.464844 13.292969 6.789062 11.382812 7.121094 C 10.867188 7.210938 10.355469 7.308594 9.828125 7.402344 C 9.917969 7.585938 10.039062 7.664062 10.148438 7.75 C 11.003906 8.433594 11.871094 9.097656 12.707031 9.800781 C 13.027344 10.070312 13.332031 10.109375 13.71875 10.015625 C 15.113281 9.679688 16.507812 9.367188 17.902344 9.042969 C 18.820312 8.828125 19.734375 8.609375 20.671875 8.386719 Z M 9.398438 30.867188 C 9.355469 30.5625 9.316406 30.230469 9.265625 29.902344 C 8.976562 28.03125 8.691406 26.164062 8.398438 24.296875 C 8.34375 23.96875 8.179688 23.699219 7.847656 23.558594 C 7.53125 23.421875 7.226562 23.269531 6.917969 23.117188 C 6.253906 22.796875 5.597656 22.472656 4.933594 22.148438 C 4.710938 22.039062 4.601562 22.070312 4.652344 22.363281 C 4.984375 24.257812 5.3125 26.15625 5.632812 28.054688 C 5.707031 28.507812 5.847656 28.917969 6.246094 29.175781 C 7.210938 29.804688 8.183594 30.421875 9.152344 31.042969 C 9.335938 31.15625 9.414062 31.105469 9.398438 30.867188 Z M 15.972656 12.167969 C 16.195312 12.238281 16.335938 12.296875 16.488281 12.332031 C 17.953125 12.707031 19.421875 13.070312 20.886719 13.457031 C 21.1875 13.535156 21.429688 13.496094 21.6875 13.324219 C 23.253906 12.273438 24.824219 11.234375 26.394531 10.1875 C 26.515625 10.109375 26.664062 10.046875 26.695312 9.859375 C 26.515625 9.828125 26.355469 9.792969 26.191406 9.769531 C 24.761719 9.582031 23.328125 9.402344 21.898438 9.207031 C 21.554688 9.160156 21.25 9.207031 20.945312 9.386719 C 20.316406 9.761719 19.664062 10.105469 19.023438 10.464844 C 18.03125 11.015625 17.042969 11.570312 15.972656 12.167969 Z M 24.671875 17.113281 C 24.546875 17.035156 24.472656 16.976562 24.386719 16.941406 C 23.035156 16.402344 21.683594 15.867188 20.332031 15.324219 C 20.136719 15.246094 19.964844 15.277344 19.785156 15.351562 C 17.925781 16.117188 16.066406 16.882812 14.207031 17.648438 C 14.125 17.683594 13.992188 17.683594 13.984375 17.792969 C 13.96875 17.917969 14.097656 17.953125 14.191406 18 C 15.289062 18.527344 16.390625 19.050781 17.488281 19.582031 C 17.695312 19.683594 17.886719 19.6875 18.101562 19.605469 C 18.804688 19.332031 19.515625 19.074219 20.222656 18.804688 C 21.691406 18.25 23.15625 17.6875 24.671875 17.113281 Z M 10.535156 38.4375 C 10.535156 38.414062 10.53125 38.390625 10.527344 38.367188 C 10.269531 36.316406 9.957031 34.273438 9.601562 32.234375 C 9.5625 32.027344 9.46875 31.867188 9.277344 31.75 C 8.289062 31.160156 7.351562 30.492188 6.335938 29.949219 C 6.25 29.902344 6.175781 29.78125 6.054688 29.878906 C 5.960938 29.957031 6.023438 30.050781 6.039062 30.140625 C 6.316406 31.710938 6.644531 33.269531 6.851562 34.847656 C 6.957031 35.636719 7.3125 36.160156 7.933594 36.570312 C 8.132812 36.703125 8.300781 36.871094 8.484375 37.023438 C 9.078125 37.515625 9.667969 38.011719 10.261719 38.503906 C 10.324219 38.554688 10.386719 38.625 10.480469 38.589844 C 10.550781 38.566406 10.53125 38.492188 10.535156 38.4375 Z M 24.742188 2.507812 C 24.695312 2.519531 24.625 2.535156 24.558594 2.558594 C 23.238281 3.042969 21.917969 3.53125 20.597656 4.019531 C 20.292969 4.132812 20.285156 4.210938 20.539062 4.417969 C 21.355469 5.074219 22.183594 5.710938 22.988281 6.378906 C 23.25 6.59375 23.480469 6.640625 23.796875 6.53125 C 25.03125 6.117188 26.269531 5.722656 27.507812 5.320312 C 27.839844 5.214844 27.855469 5.144531 27.597656 4.910156 C 26.757812 4.152344 25.914062 3.402344 25.078125 2.648438 C 24.984375 2.566406 24.894531 2.5 24.742188 2.507812 Z M 13.347656 12.675781 C 13.234375 12.601562 13.179688 12.550781 13.117188 12.523438 C 12.113281 12.109375 11.105469 11.695312 10.097656 11.292969 C 9.929688 11.222656 9.75 11.257812 9.574219 11.3125 C 7.875 11.851562 6.171875 12.390625 4.46875 12.933594 C 4.367188 12.964844 4.210938 12.984375 4.199219 13.121094 C 4.191406 13.246094 4.339844 13.265625 4.429688 13.308594 C 5.304688 13.726562 6.183594 14.144531 7.054688 14.566406 C 7.347656 14.707031 7.644531 14.730469 7.949219 14.621094 C 9.726562 13.980469 11.507812 13.339844 13.347656 12.675781 Z M 13.347656 12.675781 "/>
<path style=" stroke:none;fill-rule:nonzero;fill:rgb(38.039216%,57.254902%,80%);fill-opacity:1;" d="M 27.289062 33.945312 C 27.398438 34.25 27.175781 34.402344 26.851562 34.542969 C 24.816406 35.414062 22.785156 36.304688 20.753906 37.1875 C 20.238281 37.410156 20.234375 37.402344 20.144531 36.84375 C 19.761719 34.464844 19.515625 32.074219 19.214844 29.683594 C 19.128906 29.003906 19.136719 29.003906 19.761719 28.75 C 21.824219 27.90625 23.886719 27.066406 25.949219 26.222656 C 26.382812 26.046875 26.394531 26.042969 26.453125 26.5 C 26.710938 28.460938 26.949219 30.425781 27.132812 32.394531 C 27.179688 32.882812 27.230469 33.367188 27.289062 33.945312 Z M 27.289062 33.945312 "/>
<path style=" stroke:none;fill-rule:nonzero;fill:rgb(38.039216%,57.254902%,80%);fill-opacity:1;" d="M 34.964844 30.128906 C 35.003906 31.125 35.070312 30.921875 34.234375 31.292969 C 32.242188 32.179688 30.246094 33.050781 28.25 33.925781 C 27.875 34.089844 27.886719 34.082031 27.832031 33.683594 C 27.511719 31.273438 27.292969 28.855469 27.046875 26.4375 C 26.980469 25.808594 27.035156 25.742188 27.613281 25.503906 C 29.738281 24.621094 31.855469 23.738281 33.976562 22.855469 C 34.4375 22.664062 34.476562 22.679688 34.511719 23.171875 C 34.644531 25.109375 34.769531 27.046875 34.894531 28.984375 C 34.921875 29.367188 34.941406 29.746094 34.964844 30.128906 Z M 34.964844 30.128906 "/>
<path style=" stroke:none;fill-rule:nonzero;fill:rgb(38.039216%,57.254902%,80%);fill-opacity:1;" d="M 26.347656 25.085938 C 26.390625 25.3125 26.261719 25.453125 26.039062 25.546875 C 23.84375 26.5 21.632812 27.410156 19.417969 28.3125 C 19.128906 28.433594 18.992188 28.335938 18.953125 28.042969 C 18.710938 26.382812 18.46875 24.722656 18.230469 23.0625 C 18.136719 22.425781 18.066406 21.789062 17.960938 21.152344 C 17.90625 20.816406 18 20.621094 18.324219 20.492188 C 20.566406 19.585938 22.804688 18.683594 25.0625 17.828125 C 25.453125 17.679688 25.585938 17.75 25.625 18.128906 C 25.863281 20.390625 26.101562 22.652344 26.335938 24.914062 C 26.339844 24.960938 26.339844 25.007812 26.347656 25.085938 Z M 26.347656 25.085938 "/>
<path style=" stroke:none;fill-rule:nonzero;fill:rgb(38.039216%,57.254902%,80%);fill-opacity:1;" d="M 26.109375 17.84375 C 26.03125 17.5625 26.226562 17.394531 26.566406 17.261719 C 28.882812 16.363281 31.207031 15.480469 33.542969 14.625 C 33.820312 14.523438 33.902344 14.597656 33.921875 14.867188 C 34.003906 15.914062 34.09375 16.957031 34.171875 18.003906 C 34.265625 19.238281 34.347656 20.472656 34.441406 21.707031 C 34.464844 22.050781 34.230469 22.160156 33.984375 22.261719 C 32.699219 22.800781 31.40625 23.335938 30.117188 23.875 C 29.199219 24.257812 28.28125 24.648438 27.363281 25.03125 C 26.917969 25.21875 26.871094 25.199219 26.820312 24.734375 C 26.609375 22.710938 26.40625 20.683594 26.195312 18.660156 C 26.171875 18.421875 26.144531 18.183594 26.109375 17.84375 Z M 26.109375 17.84375 "/>
<path style=" stroke:none;fill-rule:nonzero;fill:rgb(38.039216%,57.254902%,80%);fill-opacity:1;" d="M 20.355469 38.367188 C 20.304688 37.941406 20.558594 37.867188 20.769531 37.777344 C 21.945312 37.269531 23.121094 36.769531 24.296875 36.261719 C 25.207031 35.867188 26.125 35.476562 27.03125 35.070312 C 27.304688 34.949219 27.410156 35.007812 27.445312 35.308594 C 27.59375 36.679688 27.75 38.054688 27.90625 39.425781 C 28.019531 40.40625 28.121094 41.390625 28.25 42.371094 C 28.292969 42.703125 28.199219 42.894531 27.898438 43.058594 C 25.949219 44.113281 24.007812 45.183594 22.066406 46.25 C 22.035156 46.265625 22.003906 46.28125 21.972656 46.296875 C 21.574219 46.507812 21.503906 46.46875 21.4375 46.007812 C 21.351562 45.394531 21.261719 44.78125 21.175781 44.167969 C 20.90625 42.296875 20.636719 40.421875 20.371094 38.546875 C 20.359375 38.453125 20.355469 38.359375 20.355469 38.367188 Z M 20.355469 38.367188 "/>
<path style=" stroke:none;fill-rule:nonzero;fill:rgb(38.039216%,57.254902%,80%);fill-opacity:1;" d="M 27.953125 35.070312 C 27.890625 34.773438 28.050781 34.582031 28.371094 34.445312 C 30.449219 33.550781 32.523438 32.644531 34.601562 31.746094 C 35.015625 31.566406 35.074219 31.605469 35.105469 32.039062 C 35.265625 34.082031 35.421875 36.125 35.585938 38.167969 C 35.632812 38.773438 35.605469 38.828125 35.074219 39.121094 C 33.179688 40.152344 31.285156 41.1875 29.390625 42.222656 C 28.75 42.574219 28.753906 42.574219 28.675781 41.847656 C 28.4375 39.609375 28.199219 37.371094 27.953125 35.070312 Z M 27.953125 35.070312 "/>
<path style=" stroke:none;fill-rule:nonzero;fill:rgb(38.039216%,57.254902%,80%);fill-opacity:1;" d="M 41.292969 22.035156 C 41.324219 23.917969 41.371094 25.800781 41.359375 27.683594 C 41.359375 28.0625 41.222656 28.261719 40.878906 28.410156 C 39.28125 29.101562 37.6875 29.8125 36.09375 30.515625 C 35.617188 30.722656 35.550781 30.675781 35.519531 30.160156 C 35.363281 27.792969 35.203125 25.425781 35.039062 23.0625 C 34.996094 22.433594 34.984375 22.433594 35.5625 22.195312 C 37.304688 21.480469 39.046875 20.761719 40.789062 20.046875 C 41.25 19.855469 41.292969 19.882812 41.292969 20.386719 C 41.292969 20.9375 41.292969 21.484375 41.292969 22.035156 Z M 41.292969 22.035156 "/>
<path style=" stroke:none;fill-rule:nonzero;fill:rgb(58.823529%,81.568627%,87.058824%);fill-opacity:1;" d="M 29.683594 10.316406 C 30.308594 9.921875 30.894531 9.550781 31.503906 9.164062 C 31.34375 9.078125 31.246094 9.175781 31.148438 9.214844 C 30.28125 9.5625 29.414062 9.910156 28.546875 10.269531 C 28.332031 10.363281 28.15625 10.351562 27.953125 10.214844 C 26.742188 9.402344 25.523438 8.597656 24.304688 7.789062 C 24.289062 7.78125 24.285156 7.75 24.273438 7.730469 C 24.316406 7.605469 24.441406 7.605469 24.535156 7.570312 C 25.875 7.070312 27.21875 6.578125 28.558594 6.070312 C 28.878906 5.949219 29.152344 6.003906 29.441406 6.148438 C 30.617188 6.742188 31.800781 7.316406 32.972656 7.914062 C 33.226562 8.042969 33.414062 8.050781 33.648438 7.859375 C 34.105469 7.476562 34.664062 7.332031 35.246094 7.417969 C 36.921875 7.664062 38.59375 7.933594 40.269531 8.195312 C 40.289062 8.199219 40.304688 8.214844 40.328125 8.230469 C 40.269531 8.363281 40.132812 8.398438 40.027344 8.457031 C 38.441406 9.371094 36.855469 10.277344 35.273438 11.1875 C 34.917969 11.394531 34.5625 11.453125 34.152344 11.359375 C 32.839844 11.046875 31.519531 10.765625 30.203125 10.46875 C 30.042969 10.429688 29.886719 10.378906 29.683594 10.316406 Z M 31.59375 9.074219 C 31.585938 9.070312 31.574219 9.0625 31.570312 9.0625 C 31.539062 9.078125 31.535156 9.09375 31.570312 9.105469 C 31.574219 9.109375 31.585938 9.101562 31.59375 9.097656 C 31.597656 9.09375 31.59375 9.082031 31.59375 9.074219 Z M 31.59375 9.074219 "/>
<path style=" stroke:none;fill-rule:nonzero;fill:rgb(38.039216%,57.254902%,80%);fill-opacity:1;" d="M 40.582031 11.074219 C 40.582031 12.648438 40.574219 14.21875 40.585938 15.792969 C 40.589844 16.089844 40.484375 16.273438 40.234375 16.433594 C 38.753906 17.371094 37.28125 18.324219 35.804688 19.273438 C 35.4375 19.507812 35.410156 19.488281 35.375 19.070312 C 35.195312 16.910156 35.011719 14.75 34.878906 12.589844 C 34.859375 12.277344 34.941406 12.09375 35.21875 11.933594 C 36.824219 11.015625 38.417969 10.078125 40.015625 9.148438 C 40.515625 8.855469 40.535156 8.867188 40.535156 9.464844 C 40.535156 10 40.535156 10.539062 40.535156 11.074219 C 40.550781 11.074219 40.566406 11.074219 40.582031 11.074219 Z M 40.582031 11.074219 "/>
<path style=" stroke:none;fill-rule:nonzero;fill:rgb(38.039216%,57.254902%,80%);fill-opacity:1;" d="M 35.671875 32.007812 C 35.640625 31.296875 35.644531 31.300781 36.195312 31.0625 C 37.753906 30.390625 39.308594 29.71875 40.867188 29.054688 C 41.351562 28.847656 41.390625 28.882812 41.390625 29.394531 C 41.394531 30.253906 41.335938 31.117188 41.40625 31.96875 C 41.492188 32.992188 41.421875 34.015625 41.46875 35.035156 C 41.484375 35.40625 41.339844 35.632812 41.019531 35.808594 C 39.535156 36.625 38.054688 37.453125 36.570312 38.273438 C 36.167969 38.5 36.101562 38.472656 36.070312 38.027344 C 35.953125 36.363281 35.851562 34.699219 35.742188 33.035156 C 35.714844 32.652344 35.691406 32.273438 35.671875 32.007812 Z M 35.671875 32.007812 "/>
<path style=" stroke:none;fill-rule:nonzero;fill:rgb(27.45098%,31.372549%,61.176471%);fill-opacity:1;" d="M 13.734375 26.90625 C 13.71875 26.683594 13.792969 26.625 14.003906 26.730469 C 15.355469 27.421875 16.707031 28.105469 18.058594 28.792969 C 18.253906 28.890625 18.355469 29.042969 18.386719 29.265625 C 18.589844 30.785156 18.8125 32.304688 19.007812 33.824219 C 19.152344 34.929688 19.269531 36.042969 19.398438 37.152344 C 19.414062 37.257812 19.46875 37.367188 19.359375 37.445312 C 19.246094 37.527344 19.160156 37.429688 19.074219 37.375 C 17.75 36.539062 16.429688 35.699219 15.101562 34.867188 C 14.886719 34.734375 14.796875 34.554688 14.761719 34.320312 C 14.566406 32.945312 14.367188 31.566406 14.171875 30.191406 C 14.027344 29.15625 13.890625 28.117188 13.753906 27.082031 C 13.746094 27.023438 13.742188 26.964844 13.734375 26.90625 Z M 13.734375 26.90625 "/>
<path style=" stroke:none;fill-rule:nonzero;fill:rgb(27.45098%,31.372549%,61.176471%);fill-opacity:1;" d="M 14.976562 35.394531 C 15.421875 35.667969 15.84375 35.921875 16.257812 36.183594 C 17.246094 36.804688 18.222656 37.429688 19.210938 38.042969 C 19.492188 38.214844 19.613281 38.445312 19.65625 38.765625 C 19.851562 40.347656 20.066406 41.925781 20.265625 43.507812 C 20.398438 44.570312 20.507812 45.632812 20.632812 46.699219 C 20.640625 46.769531 20.648438 46.851562 20.574219 46.890625 C 20.484375 46.9375 20.417969 46.859375 20.359375 46.808594 C 19.738281 46.3125 19.121094 45.8125 18.503906 45.308594 C 17.757812 44.699219 17.023438 44.078125 16.269531 43.484375 C 15.945312 43.226562 15.867188 42.882812 15.816406 42.511719 C 15.558594 40.605469 15.292969 38.695312 15.046875 36.785156 C 14.992188 36.34375 14.882812 35.898438 14.976562 35.394531 Z M 14.976562 35.394531 "/>
<path style=" stroke:none;fill-rule:nonzero;fill:rgb(27.45098%,31.372549%,61.176471%);fill-opacity:1;" d="M 18.226562 27.640625 C 18.230469 28.246094 18.179688 28.289062 17.761719 28.074219 C 16.523438 27.449219 15.292969 26.808594 14.054688 26.183594 C 13.6875 26 13.585938 25.667969 13.535156 25.304688 C 13.230469 23.125 12.929688 20.945312 12.625 18.765625 C 12.613281 18.660156 12.59375 18.546875 12.6875 18.46875 C 12.796875 18.375 12.910156 18.425781 13.015625 18.488281 C 14.175781 19.132812 15.367188 19.722656 16.597656 20.21875 C 17.15625 20.445312 17.417969 20.875 17.445312 21.464844 C 17.511719 22.96875 17.792969 24.441406 17.980469 25.929688 C 18.058594 26.539062 18.15625 27.152344 18.226562 27.640625 Z M 18.226562 27.640625 "/>
<path style=" stroke:none;fill-rule:nonzero;fill:rgb(27.45098%,31.372549%,61.176471%);fill-opacity:1;" d="M 12.980469 25.613281 C 12 25.117188 11.082031 24.65625 10.164062 24.191406 C 9.804688 24.007812 9.445312 23.820312 9.082031 23.644531 C 8.894531 23.554688 8.792969 23.425781 8.757812 23.214844 C 8.410156 20.945312 8.054688 18.675781 7.707031 16.40625 C 7.691406 16.304688 7.632812 16.179688 7.71875 16.097656 C 7.832031 15.996094 7.945312 16.105469 8.042969 16.152344 C 9.300781 16.742188 10.554688 17.339844 11.808594 17.933594 C 11.996094 18.023438 12.09375 18.15625 12.121094 18.371094 C 12.253906 19.480469 12.394531 20.589844 12.535156 21.703125 C 12.664062 22.742188 12.800781 23.777344 12.929688 24.820312 C 12.957031 25.058594 12.960938 25.304688 12.980469 25.613281 Z M 12.980469 25.613281 "/>
<path style=" stroke:none;fill-rule:nonzero;fill:rgb(27.45098%,31.372549%,61.176471%);fill-opacity:1;" d="M 14.101562 33.765625 C 14.082031 33.882812 14.15625 34.019531 14.058594 34.082031 C 13.957031 34.148438 13.867188 34.03125 13.78125 33.972656 C 12.679688 33.277344 11.578125 32.570312 10.472656 31.878906 C 10.222656 31.71875 10.089844 31.507812 10.035156 31.21875 C 9.613281 29.035156 9.335938 26.828125 8.984375 24.632812 C 8.964844 24.527344 8.921875 24.394531 9.007812 24.324219 C 9.113281 24.234375 9.230469 24.324219 9.335938 24.378906 C 10.5 24.964844 11.664062 25.554688 12.832031 26.140625 C 13.035156 26.246094 13.160156 26.382812 13.191406 26.628906 C 13.34375 27.855469 13.511719 29.082031 13.667969 30.308594 C 13.804688 31.359375 13.933594 32.410156 14.066406 33.460938 C 14.078125 33.566406 14.089844 33.675781 14.101562 33.765625 Z M 14.101562 33.765625 "/>
<path style=" stroke:none;fill-rule:nonzero;fill:rgb(58.823529%,81.568627%,87.058824%);fill-opacity:1;" d="M 21.03125 14.957031 C 21.238281 14.753906 21.503906 14.671875 21.75 14.570312 C 23.824219 13.726562 25.902344 12.890625 27.972656 12.046875 C 28.195312 11.957031 28.398438 11.9375 28.625 12.027344 C 30.035156 12.578125 31.449219 13.121094 32.863281 13.671875 C 32.960938 13.707031 33.070312 13.730469 33.140625 13.851562 C 33.070312 13.953125 32.949219 13.960938 32.847656 14 C 30.605469 14.863281 28.359375 15.722656 26.117188 16.585938 C 25.792969 16.707031 25.476562 16.773438 25.148438 16.640625 C 23.839844 16.117188 22.535156 15.589844 21.226562 15.0625 C 21.164062 15.035156 21.105469 14.996094 21.03125 14.957031 Z M 21.03125 14.957031 "/>
<path style=" stroke:none;fill-rule:nonzero;fill:rgb(27.45098%,31.372549%,61.176471%);fill-opacity:1;" d="M 8.175781 22.898438 C 8.167969 23.175781 7.984375 23.085938 7.820312 23 C 7.039062 22.601562 6.277344 22.152344 5.472656 21.8125 C 4.714844 21.492188 4.382812 21 4.238281 20.175781 C 3.894531 18.199219 3.523438 16.226562 3.175781 14.246094 C 3.15625 14.136719 3.125 14.027344 3.226562 13.953125 C 3.324219 13.878906 3.421875 13.933594 3.523438 13.980469 C 4.542969 14.484375 5.5625 14.992188 6.589844 15.480469 C 6.90625 15.628906 7.089844 15.828125 7.144531 16.195312 C 7.4375 18.15625 7.746094 20.117188 8.050781 22.078125 C 8.089844 22.335938 8.128906 22.597656 8.175781 22.898438 Z M 8.175781 22.898438 "/>
<path style=" stroke:none;fill-rule:nonzero;fill:rgb(27.45098%,31.372549%,61.176471%);fill-opacity:1;" d="M 15.226562 42.246094 C 15.222656 42.300781 15.242188 42.382812 15.15625 42.414062 C 15.046875 42.449219 14.972656 42.367188 14.902344 42.3125 C 14.4375 41.925781 13.976562 41.53125 13.507812 41.144531 C 12.964844 40.703125 12.421875 40.257812 11.867188 39.832031 C 11.488281 39.542969 11.253906 39.179688 11.183594 38.707031 C 10.886719 36.730469 10.535156 34.765625 10.292969 32.78125 C 10.285156 32.699219 10.234375 32.609375 10.320312 32.550781 C 10.414062 32.480469 10.5 32.546875 10.578125 32.597656 C 11.75 33.34375 12.921875 34.09375 14.089844 34.839844 C 14.230469 34.929688 14.300781 35.054688 14.320312 35.222656 C 14.53125 36.816406 14.746094 38.40625 14.957031 40 C 15.050781 40.742188 15.132812 41.488281 15.226562 42.246094 Z M 15.226562 42.246094 "/>
<path style=" stroke:none;fill-rule:nonzero;fill:rgb(58.823529%,81.568627%,87.058824%);fill-opacity:1;" d="M 19.121094 14.960938 C 18.996094 15.101562 18.824219 15.15625 18.660156 15.222656 C 16.917969 15.929688 15.171875 16.636719 13.429688 17.347656 C 13.207031 17.4375 13.007812 17.445312 12.785156 17.335938 C 11.414062 16.652344 10.042969 15.980469 8.671875 15.304688 C 8.570312 15.253906 8.402344 15.230469 8.414062 15.097656 C 8.425781 14.964844 8.601562 14.972656 8.703125 14.933594 C 10.386719 14.324219 12.070312 13.726562 13.75 13.113281 C 14.035156 13.007812 14.285156 13.007812 14.574219 13.105469 C 16.042969 13.605469 17.476562 14.203125 18.910156 14.789062 C 18.984375 14.820312 19.070312 14.84375 19.121094 14.960938 Z M 19.121094 14.960938 "/>
<path style=" stroke:none;fill-rule:nonzero;fill:rgb(58.823529%,81.568627%,87.058824%);fill-opacity:1;" d="M 20.671875 8.386719 C 19.734375 8.609375 18.820312 8.828125 17.902344 9.042969 C 16.507812 9.367188 15.113281 9.679688 13.71875 10.015625 C 13.332031 10.109375 13.027344 10.070312 12.707031 9.800781 C 11.871094 9.097656 11.003906 8.433594 10.148438 7.753906 C 10.039062 7.664062 9.917969 7.585938 9.828125 7.402344 C 10.355469 7.308594 10.867188 7.210938 11.382812 7.121094 C 13.292969 6.789062 15.207031 6.464844 17.121094 6.125 C 17.453125 6.066406 17.726562 6.109375 18.007812 6.328125 C 18.796875 6.941406 19.609375 7.519531 20.410156 8.113281 C 20.503906 8.179688 20.613281 8.230469 20.671875 8.386719 Z M 20.671875 8.386719 "/>
<path style=" stroke:none;fill-rule:nonzero;fill:rgb(27.45098%,31.372549%,61.176471%);fill-opacity:1;" d="M 9.398438 30.867188 C 9.414062 31.105469 9.335938 31.15625 9.152344 31.042969 C 8.183594 30.421875 7.210938 29.804688 6.246094 29.175781 C 5.847656 28.917969 5.707031 28.507812 5.632812 28.054688 C 5.3125 26.15625 4.984375 24.257812 4.652344 22.363281 C 4.601562 22.070312 4.710938 22.039062 4.9375 22.148438 C 5.597656 22.472656 6.257812 22.796875 6.917969 23.117188 C 7.226562 23.269531 7.535156 23.421875 7.847656 23.558594 C 8.179688 23.699219 8.34375 23.96875 8.398438 24.296875 C 8.695312 26.164062 8.976562 28.03125 9.265625 29.902344 C 9.3125 30.230469 9.355469 30.5625 9.398438 30.867188 Z M 9.398438 30.867188 "/>
<path style=" stroke:none;fill-rule:nonzero;fill:rgb(58.823529%,81.568627%,87.058824%);fill-opacity:1;" d="M 15.972656 12.167969 C 17.042969 11.570312 18.03125 11.015625 19.023438 10.464844 C 19.664062 10.105469 20.3125 9.761719 20.945312 9.386719 C 21.25 9.207031 21.554688 9.160156 21.894531 9.207031 C 23.328125 9.398438 24.761719 9.582031 26.191406 9.769531 C 26.355469 9.792969 26.515625 9.828125 26.695312 9.859375 C 26.660156 10.046875 26.515625 10.109375 26.394531 10.1875 C 24.824219 11.234375 23.253906 12.273438 21.6875 13.324219 C 21.429688 13.496094 21.1875 13.535156 20.886719 13.453125 C 19.421875 13.070312 17.953125 12.707031 16.484375 12.332031 C 16.335938 12.296875 16.195312 12.238281 15.972656 12.167969 Z M 15.972656 12.167969 "/>
<path style=" stroke:none;fill-rule:nonzero;fill:rgb(58.823529%,81.568627%,87.058824%);fill-opacity:1;" d="M 24.671875 17.113281 C 23.15625 17.6875 21.691406 18.25 20.222656 18.804688 C 19.515625 19.074219 18.804688 19.335938 18.101562 19.605469 C 17.886719 19.6875 17.695312 19.6875 17.488281 19.582031 C 16.390625 19.050781 15.289062 18.527344 14.191406 18 C 14.097656 17.953125 13.96875 17.917969 13.984375 17.792969 C 13.992188 17.683594 14.125 17.683594 14.207031 17.652344 C 16.066406 16.882812 17.925781 16.117188 19.785156 15.351562 C 19.964844 15.277344 20.136719 15.25 20.332031 15.328125 C 21.683594 15.871094 23.035156 16.402344 24.386719 16.941406 C 24.472656 16.976562 24.546875 17.035156 24.671875 17.113281 Z M 24.671875 17.113281 "/>
<path style=" stroke:none;fill-rule:nonzero;fill:rgb(27.45098%,31.372549%,61.176471%);fill-opacity:1;" d="M 10.535156 38.4375 C 10.53125 38.492188 10.550781 38.566406 10.480469 38.589844 C 10.386719 38.625 10.324219 38.554688 10.261719 38.503906 C 9.667969 38.011719 9.078125 37.515625 8.484375 37.023438 C 8.300781 36.871094 8.132812 36.703125 7.933594 36.570312 C 7.3125 36.160156 6.957031 35.636719 6.851562 34.847656 C 6.644531 33.269531 6.316406 31.710938 6.039062 30.144531 C 6.023438 30.054688 5.960938 29.957031 6.054688 29.878906 C 6.175781 29.78125 6.25 29.902344 6.335938 29.949219 C 7.351562 30.496094 8.292969 31.160156 9.277344 31.75 C 9.46875 31.867188 9.5625 32.027344 9.601562 32.234375 C 9.957031 34.273438 10.269531 36.316406 10.527344 38.367188 C 10.53125 38.390625 10.53125 38.414062 10.535156 38.4375 Z M 10.535156 38.4375 "/>
<path style=" stroke:none;fill-rule:nonzero;fill:rgb(58.823529%,81.568627%,87.058824%);fill-opacity:1;" d="M 24.742188 2.507812 C 24.894531 2.5 24.984375 2.566406 25.078125 2.648438 C 25.917969 3.402344 26.757812 4.152344 27.597656 4.910156 C 27.859375 5.140625 27.839844 5.214844 27.507812 5.320312 C 26.269531 5.722656 25.03125 6.117188 23.796875 6.53125 C 23.480469 6.640625 23.25 6.589844 22.988281 6.375 C 22.183594 5.710938 21.355469 5.074219 20.542969 4.417969 C 20.285156 4.210938 20.296875 4.132812 20.597656 4.019531 C 21.917969 3.527344 23.238281 3.042969 24.558594 2.558594 C 24.625 2.535156 24.695312 2.519531 24.742188 2.507812 Z M 24.742188 2.507812 "/>
<path style=" stroke:none;fill-rule:nonzero;fill:rgb(58.823529%,81.568627%,87.058824%);fill-opacity:1;" d="M 13.347656 12.675781 C 11.507812 13.339844 9.726562 13.980469 7.949219 14.621094 C 7.644531 14.730469 7.347656 14.707031 7.054688 14.566406 C 6.183594 14.144531 5.304688 13.726562 4.429688 13.308594 C 4.339844 13.265625 4.191406 13.246094 4.199219 13.121094 C 4.210938 12.984375 4.367188 12.964844 4.46875 12.933594 C 6.171875 12.390625 7.875 11.851562 9.574219 11.3125 C 9.75 11.253906 9.929688 11.222656 10.097656 11.292969 C 11.105469 11.695312 12.113281 12.109375 13.117188 12.523438 C 13.179688 12.550781 13.234375 12.601562 13.347656 12.675781 Z M 13.347656 12.675781 "/>
<path style=" stroke:none;fill-rule:nonzero;fill:rgb(7.45098%,5.882353%,6.27451%);fill-opacity:1;" d="M 31.59375 9.074219 C 31.59375 9.082031 31.597656 9.09375 31.59375 9.097656 C 31.585938 9.101562 31.574219 9.109375 31.570312 9.105469 C 31.535156 9.09375 31.535156 9.074219 31.570312 9.0625 C 31.574219 9.0625 31.585938 9.070312 31.59375 9.074219 Z M 31.59375 9.074219 "/>
</g>
</svg>
